# xmcd
#
# Track frame offsets:
# 150
# 18047
# 41492
# 72162
#
# Disc length: 1223 seconds
#
#
# Revision: 2
# Processed by: cddbd v1.5.1PL0 Copyright (c) Steve Scherf et al.
# Submitted via: FreeRIP 2.91 
#
DISCID=2604c504
DTITLE=Monie Love - Monie In The Middle
DYEAR=1990
DGENRE=R&B
TTITLE0=Monie In The Middle
TTITLE1=Monie In The Middle (Extended Mix)
TTITLE2=Monie In The Middle (The Hot Shot Mix)
TTITLE3=Roots
EXTD=
EXTT0=
EXTT1=
EXTT2=
EXTT3=
PLAYORDER=
